<svg width="31" height="30" viewBox="0 0 31 30" fill="none" xmlns="http://www.w3.org/2000/svg">
<path d="M16.7887 14.296L22.3331 9.38166L4.425 0.460413C3.23813 -0.107968 2.12625 -0.18774 1.15125 0.433822L16.7887 14.296ZM23.2781 20.0496L29.0419 17.1761C30.1669 16.6177 30.7837 15.8266 30.7837 14.9491C30.7837 14.0733 30.1669 13.2806 29.0437 12.7221L23.8256 10.1245L17.9513 15.3297L23.2781 20.0496ZM0.1875 1.64205C0.0674998 1.96945 0 2.33507 0 2.7356V27.1743C0 27.8075 0.1575 28.3526 0.4425 28.7864L15.6244 15.3281L0.1875 1.64205ZM16.7887 16.3585L1.69125 29.742C1.98 29.84 2.29125 29.8916 2.61937 29.8916C3.20437 29.8916 3.81375 29.7387 4.43437 29.4329L21.7875 20.7958L16.7887 16.3585Z" fill="white"/>
</svg>
