<svg width="35" height="35" viewBox="0 0 35 35" fill="none" xmlns="http://www.w3.org/2000/svg">
<path d="M17.0833 34.15C7.64821 34.15 0 26.5055 0 17.075C0 7.64448 7.64821 0 17.0833 0C26.5185 0 34.1667 7.64448 34.1667 17.075C34.1564 26.5004 26.5133 34.1398 17.0833 34.15ZM9.78363 21.8338C9.56325 21.8338 9.34458 21.8611 9.12933 21.9124L8.87308 21.9824L7.85833 23.7189C7.67298 24.0279 7.61346 24.3963 7.69207 24.7479C7.77069 25.0996 7.98143 25.4076 8.28076 25.6083C8.58009 25.8091 8.94514 25.8873 9.30049 25.8267C9.65584 25.7662 9.97435 25.5715 10.1902 25.283L10.2961 25.1242L11.6457 22.7832C11.427 22.4908 11.1435 22.2529 10.8175 22.0882C10.4915 21.9235 10.1318 21.8364 9.76654 21.8338H9.78363ZM19.1521 11.372C18.6206 11.871 18.2682 12.5311 18.1493 13.2502C17.9589 14.2418 18.1414 15.2688 18.6618 16.1342L23.8552 25.1259C24.0359 25.4298 24.3241 25.655 24.6629 25.7568C25.0017 25.8586 25.3663 25.8296 25.6848 25.6757C26.0023 25.5191 26.2491 25.2486 26.3758 24.9181C26.5025 24.5877 26.4997 24.2216 26.3681 23.8931L26.2844 23.7223L24.9178 21.3472H26.9507C27.3067 21.3442 27.6483 21.2063 27.9066 20.9614C28.1649 20.7165 28.3206 20.3827 28.3422 20.0275C28.3639 19.6723 28.25 19.3221 28.0234 19.0476C27.7968 18.7732 27.4745 18.5948 27.1215 18.5486L26.9507 18.5383H23.2948L19.5468 12.0498L19.1555 11.3668L19.1521 11.372ZM7.2775 18.5264C7.09392 18.5268 6.91224 18.5635 6.74285 18.6342C6.57347 18.7049 6.4197 18.8084 6.29037 18.9386C6.16104 19.0688 6.05868 19.2233 5.98916 19.3931C5.91963 19.5629 5.88431 19.7448 5.88521 19.9282C5.88521 20.6351 6.41138 21.2328 7.1135 21.3233L7.28433 21.3318H20.0627C20.2041 21.048 20.2752 20.7344 20.2702 20.4173C20.2651 20.1003 20.184 19.7891 20.0336 19.5099C19.9057 19.2484 19.7151 19.0225 19.4788 18.8524C19.2424 18.6823 18.9676 18.5732 18.6789 18.5349L18.4722 18.5247H14.1143L20.1413 8.09355C20.3269 7.7702 20.3772 7.38664 20.2813 7.02636C20.2131 6.77354 20.0756 6.54476 19.8844 6.36577C19.6932 6.18678 19.4557 6.06469 19.1989 6.01323C18.942 5.96177 18.6758 5.98299 18.4303 6.0745C18.1849 6.166 17.9698 6.32417 17.8094 6.53119L17.7035 6.68828L17.0833 7.77083L16.47 6.68828C16.2893 6.3839 16.0007 6.15847 15.6616 6.05664C15.3224 5.95482 14.9574 5.98402 14.6387 6.13846C14.3213 6.29564 14.0748 6.5665 13.9481 6.89715C13.8215 7.22779 13.8241 7.59397 13.9554 7.9228L14.0391 8.09355L15.457 10.5865L10.8701 18.5264H7.2775Z" fill="white"/>
</svg>
